<?xml version="1.0" encoding="utf-8"?>
<!-- Generator: Adobe Illustrator 24.3.0, SVG Export Plug-In . SVG Version: 6.00 Build 0)  -->
<svg version="1.1" id="Layer_2" xmlns="http://www.w3.org/2000/svg" xmlns:xlink="http://www.w3.org/1999/xlink" x="0px" y="0px"
	 viewBox="0 0 132.56 134.88" style="enable-background:new 0 0 132.56 134.88;" xml:space="preserve">
<style type="text/css">
	.st0{fill:#37AE8F;stroke:#37AE8F;stroke-miterlimit:10;}
	.st1{display:none;}
	.st2{display:inline;}
</style>
<g>
	<path class="st0" d="M67.47,106.86c-0.44,0.01-0.88,0.03-1.32,0.03h-39.6V50.81H4.73v77.91h61.6c5.4,0,10.63-0.71,15.62-2.03
		L67.47,106.86z"/>
	<path class="st0" d="M105.75,67.3c0,6.08-1.38,11.84-3.84,16.99l13.97,19.13c7.49-10.19,11.87-22.75,11.87-36.3
		c0-33.97-27.63-61.42-61.6-61.42l-17.9-0.05V27.7h17.9C87.98,27.7,105.75,45.48,105.75,67.3z"/>
</g>
<g class="st1">
	<path class="st2" d="M156.19,65.5v3.9h30.36v7.5h-30.36v7.92c0,2.1,1.96,3.84,4.32,3.84h34.48v7.5h-34.48
		c-7.02,0-12.68-5.1-12.68-11.34V65.5c0-6.24,5.67-11.34,12.68-11.34h34.48v7.5h-34.48C158.15,61.66,156.19,63.4,156.19,65.5z"/>
	<path class="st2" d="M210.17,65.5v3.9h30.36v7.5h-30.36v7.92c0,2.1,1.96,3.84,4.32,3.84h34.48v7.5h-34.48
		c-7.02,0-12.68-5.1-12.68-11.34V65.5c0-6.24,5.67-11.34,12.68-11.34h34.48v7.5h-34.48C212.13,61.66,210.17,63.4,210.17,65.5z"/>
	<path class="st2" d="M301.13,54.16l-4.32,7.5l-19.77,34.5l-19.77-34.5l-4.32-7.5h9.45l4.32,7.5l10.32,18l10.32-18l4.32-7.5H301.13z
		"/>
	<path class="st2" d="M310.71,65.5v3.9h30.36v7.5h-30.36v7.92c0,2.1,1.96,3.84,4.32,3.84h34.48v7.5h-34.48
		c-7.02,0-12.69-5.1-12.69-11.34V65.5c0-6.24,5.67-11.34,12.69-11.34h34.48v7.5h-34.48C312.67,61.66,310.71,63.4,310.71,65.5z"/>
	<path class="st2" d="M364.69,65.5v3.9h30.36v7.5h-30.36v7.92c0,2.1,1.96,3.84,4.32,3.84h34.48v7.5h-34.48
		c-7.02,0-12.69-5.1-12.69-11.34V65.5c0-6.24,5.67-11.34,12.69-11.34h34.48v7.5h-34.48C366.65,61.66,364.69,63.4,364.69,65.5z"/>
</g>
</svg>
